<?xml version="1.0" encoding="utf-8"?>
<!-- Generator: Adobe Illustrator 26.0.3, SVG Export Plug-In . SVG Version: 6.00 Build 0)  -->
<svg version="1.0" id="katman_1" xmlns="http://www.w3.org/2000/svg" xmlns:xlink="http://www.w3.org/1999/xlink" x="0px" y="0px"
	 viewBox="0 0 800 600" style="enable-background:new 0 0 800 600;" xml:space="preserve">
<style type="text/css">
	.st0{fill-rule:evenodd;clip-rule:evenodd;fill:#FFFFFF;filter:url(#Adobe_OpacityMaskFilter);}
	.st1{mask:url(#mask0_00000182507027430691727050000001160169551387575684_);}
	.st2{clip-path:url(#SVGID_00000160879171933015791560000011776231517928608912_);}
	.st3{fill:#4169E1;}
</style>
<g>
	<defs>
		<rect id="SVGID_1_" x="107.1" y="217.7" width="585.5" height="163.8"/>
	</defs>
	<clipPath id="SVGID_00000023263822599889872610000012601166287414177702_">
		<use xlink:href="#SVGID_1_"  style="overflow:visible;"/>
	</clipPath>
	<g style="clip-path:url(#SVGID_00000023263822599889872610000012601166287414177702_);">
		<path class="st3" d="M690.2,304.8c-1.6-2.9-3.8-5.5-6.5-7.5c-2.8-2.1-6-3.7-9.4-4.8c-3.6-1.2-7.2-2.2-10.9-3
			c-4.1-1-8.3-2-12.5-3.1c-4.2-1.1-7.8-2.6-10.5-4.3c-1-0.5-2.1-1.5-2.1-3.7c0-0.9,0.2-1.8,0.6-2.6l0.1-0.1c1-1.3,2.5-2.5,4.7-3.6
			c2.2-1.1,5.4-1.6,9.8-1.6c3.5,0,6.4,0.5,8.8,1.4c2.1,0.8,4.1,1.9,5.9,3.4c1.5,1.3,2.7,2.7,3.7,4.4c0.7,1.1,1.3,2.2,1.8,3.1
			l15.3-9.9c-1-2.3-2.3-4.5-3.9-6.6c-2-2.7-4.4-5.1-7.1-7.1c-3.2-2.3-6.6-4.1-10.4-5.3c-4-1.4-8.8-2.1-14.2-2.1
			c-6.3,0-11.6,0.9-15.8,2.5c-4.2,1.7-7.6,3.7-10.1,6.1c-2.4,2.1-4.3,4.7-5.7,7.5c-1.1,2.3-2,4.7-2.6,7.1c-0.1,0.7-0.2,1.4-0.3,2.3
			c-0.1,0.7-0.2,1.5-0.2,2.2c0,4.3,1.1,7.9,3.2,10.8c2.2,3,5,5.5,8.3,7.4c3.4,2,7.1,3.6,10.9,4.7c4,1.2,7.8,2.2,11.4,3
			c3.5,0.8,6.8,1.7,9.8,2.5c2.8,0.7,5.4,1.8,7.8,3.4c1.9,1.4,2.8,3.1,2.8,5.1c0,1-0.2,1.9-0.6,2.8c-0.4,0.9-1.1,1.6-1.9,2.2
			c-1.6,1.1-3.3,2-5.2,2.6c-1.9,0.6-3.9,1-5.9,1.2c-1.9,0.2-3.5,0.3-4.8,0.3c-3.2,0.1-6.5-0.3-9.6-1.1c-2.2-0.6-4.4-1.5-6.4-2.6
			c-1.5-0.8-2.8-1.9-3.9-3.2c-0.7-0.8-1.3-1.7-1.9-2.5l-1.8-2.6l-15.3,9.9c1.4,2.2,2.9,4.3,4.5,6.3c2.2,2.7,4.9,5.2,7.8,7.2
			c3.5,2.4,7.3,4.2,11.3,5.5c4.3,1.4,9.4,2.2,15.2,2.2c4.2,0,8.4-0.4,12.6-1.2c3.3-0.7,6.5-1.8,9.5-3.2c2.4-1.2,4.7-2.7,6.7-4.6
			c1.7-1.6,3.2-3.3,4.5-5.2c2.8-4.2,4.4-9.2,4.7-14.2C692.6,311.6,691.8,307.8,690.2,304.8z"/>
		<path class="st3" d="M331,251c-10.5,0-20.7,4.2-28.1,11.6c-7.5,7.4-11.7,17.5-11.7,28v52h19v-52c0-5.5,2.2-10.7,6.1-14.6
			c3.9-3.9,9.2-6.1,14.7-6.1c5.5,0,10.8,2.2,14.7,6.1c3.9,3.9,6.1,9.1,6.1,14.6v52h19v-52c0-10.5-4.2-20.6-11.7-28
			C351.7,255.2,341.6,251,331,251z"/>
		<path class="st3" d="M562.5,251c-7.3,0-14.6,1.7-21.1,5c-6.5,3.3-12.2,8.1-16.6,13.9c-4.4,5.9-7.3,12.7-8.5,19.9
			c-1.2,7.2-0.8,14.6,1.4,21.6c2.1,7,5.9,13.4,11,18.7c5.1,5.3,11.3,9.3,18.2,11.7c6.9,2.4,14.3,3.2,21.6,2.3
			c7.3-0.9,14.2-3.5,20.3-7.6l1.6-1.1v7.2h19.1v-44.9c0-12.4-5-24.3-13.7-33C586.8,255.9,574.9,251,562.5,251z M562.5,325.5
			c-5.5,0-10.9-1.6-15.5-4.7c-4.6-3-8.1-7.4-10.3-12.5c-2.1-5.1-2.7-10.7-1.6-16c1.1-5.4,3.7-10.3,7.6-14.2
			c3.9-3.9,8.9-6.5,14.3-7.6c5.4-1.1,11-0.5,16.1,1.6c5.1,2.1,9.4,5.7,12.5,10.2c3.1,4.6,4.7,9.9,4.7,15.4c0,7.4-2.9,14.4-8.2,19.6
			C576.9,322.6,569.9,325.5,562.5,325.5z"/>
		<path class="st3" d="M495.2,304.8v-87.1h-19v87.1c0,10.3,4.1,20.3,11.3,27.7c7.2,7.4,17.1,11.7,27.5,12v-19
			c-5.3-0.3-10.3-2.5-14-6.4C497.3,315.2,495.2,310.1,495.2,304.8z"/>
		<path class="st3" d="M462.4,252.8h-18.8v52.1c0,8.9-5.8,16.9-14,19.5c-6.6,2.1-13.5,1-19-2.9c-2.6-1.9-4.8-4.4-6.2-7.3
			s-2.3-6.1-2.3-9.3v-52h-19v51.8c0,18,11.8,33.7,28.7,38.3c10.4,2.8,21.3,1.6,30.4-3.4l1.5-0.8v3.1c0,5.3-2.1,10.4-5.7,14.2
			s-8.7,6.1-14,6.4v19c10.4-0.3,20.2-4.6,27.5-12c7.2-7.4,11.3-17.3,11.3-27.7v-87.1H462L462.4,252.8z"/>
		<path class="st3" d="M240.9,240.4c-4.9-4.9-10.7-8.7-17-11.4c-6.4-2.6-13.2-4-20.1-3.9c-6.9,0-13.7,1.3-20.1,3.9
			c-6.4,2.6-12.2,6.5-17,11.4L113,293.9c-1.3,1.3-2,3-2,4.8s0.7,3.5,2,4.7c1.3,1.3,3,2,4.8,2c1.8,0,3.5-0.7,4.8-2l53.7-53.5
			c7.4-7.1,17.2-11.1,27.5-11c10.3,0.1,20.1,4.2,27.3,11.4c7.2,7.2,11.4,17,11.4,27.2c0.1,10.2-3.9,20.1-11.1,27.4l-53.7,53.5
			c-1.3,1.3-2,3-2,4.7c0,1.8,0.7,3.5,2,4.8c1.3,1.3,3,2,4.8,2c1.8,0,3.5-0.7,4.8-2l53.7-53.5c9.8-9.8,15.3-23.1,15.3-37
			C256.3,263.5,250.7,250.2,240.9,240.4z"/>
		<path class="st3" d="M233.4,277.4c0-5.8-1.7-11.5-5-16.4c-3.3-4.9-7.9-8.6-13.3-10.9c-5.4-2.2-11.4-2.8-17.1-1.7
			c-5.7,1.1-11,4-15.2,8.1l-71.3,71.1c-1.2,1.3-1.9,3-1.8,4.7c0,1.7,0.7,3.4,2,4.6c1.2,1.2,2.9,1.9,4.7,2c1.8,0,3.4-0.6,4.7-1.8
			l70.5-70.2l0.1-0.1c0.2-0.2,0.4-0.5,0.7-0.7c0.2-0.3,0.5-0.5,0.8-0.8l0.2-0.1c3-2.6,6.9-3.9,10.9-3.8c4,0.1,7.8,1.7,10.6,4.4
			c2.9,2.7,4.7,6.4,5,10.4c0.3,3.9-0.8,7.9-3.2,11l0,0.1c-0.4,0.6-0.9,1.1-1.4,1.6c-0.5,0.5-1.1,1-1.7,1.4l-69.7,69.6
			c-1.3,1.3-2,3-2,4.7s0.7,3.5,2,4.7c1.3,1.3,3,2,4.8,2c1.8,0,3.5-0.7,4.8-2l71.3-71.1c2.8-2.7,4.9-6,6.4-9.6
			C232.6,285.1,233.4,281.3,233.4,277.4z"/>
		<path class="st3" d="M197.1,292c-3.6-1.6-6.4-4.4-8-8l-0.5-1.1l-78.8,78.5c-1.5,1.5-2.5,3.4-2.7,5.5c-0.1,0.9,0,1.9,0.2,2.7
			c0.3,0.9,0.8,1.7,1.4,2.4c0.6,0.6,1.3,1,2,1.3c0.7,0.3,1.5,0.4,2.3,0.4c2.4-0.1,4.6-1,6.3-2.8l78.7-78.5L197.1,292z"/>
	</g>
</g>
</svg>
